<svg xmlns="http://www.w3.org/2000/svg" width="24" height="24" fill="none" viewBox="0 0 24 24"><path stroke="#F8F8F8" stroke-linecap="round" stroke-linejoin="round" stroke-width="2" d="M15 22v-4c.1-1.3-.2-2.5-1-3.5 3 0 6-2 6-5.5 0-1.3-.3-2.5-1-3.5.3-1.2.3-2.4 0-3.5 0 0-1 0-3 1.5-2.6-.5-5.4-.5-8 0C6 2 5 2 5 2a7 7 0 0 0 0 3.5c-.7 1-1 2.3-1 3.5 0 3.5 3 5.5 6 5.5A4.7 4.7 0 0 0 9 18v4"/><path stroke="#F8F8F8" stroke-linecap="round" stroke-linejoin="round" stroke-width="2" d="M9 18c-4.5 2-5-2-7-2"/></svg>