<svg xmlns="http://www.w3.org/2000/svg" width="24" height="24" fill="none" viewBox="0 0 24 24"><path fill="#fff" fill-rule="evenodd" d="M14.8 5.7a3 3 0 0 0-3 3.7 1 1 0 0 1-1 1.1c-2.3-.2-4.3-1.1-6-2.5.1.6.3 1.2.8 2l.7 1-1.2.4H5a5.7 5.7 0 0 0 1.2 1.1 7.3 7.3 0 0 0 .3.2l1.6 1-1.7.8h-.2l1.1.8 1.4.7-1.1 1c-.7.5-1.3 1-2.1 1.1 1.2.7 2.6 1 4.1 1 4.8 0 8.7-3.8 8.7-8.5v-.5l.4-.3c.7-.5 1.1-1 1.5-1.8h-2.2l-.3-.6a3 3 0 0 0-2.8-1.7ZM3.6 13a1 1 0 0 0-.3.8c.1.8.6 1.4 1.2 2l.4.4H2.5a1 1 0 0 0-.8 1.7 10.7 10.7 0 0 0 18.4-6.8c1.3-1 1.9-2.5 2.2-3.9a1 1 0 0 0-1-1.2h-2.3a5 5 0 0 0-9.3 2.3 9.2 9.2 0 0 1-4.7-3 1 1 0 0 0-1.7.3 5.3 5.3 0 0 0 0 4.4H3a1 1 0 0 0-.6 1.3c.2.6.6 1.2 1 1.7Z" clip-rule="evenodd"/></svg>